<?xml version="1.0" standalone="no"?>
<!DOCTYPE svg PUBLIC "-//W3C//DTD SVG 20010904//EN"
 "http://www.w3.org/TR/2001/REC-SVG-20010904/DTD/svg10.dtd">
<svg version="1.0" xmlns="http://www.w3.org/2000/svg"
 width="1536.000000pt" height="1024.000000pt" viewBox="0 0 1536.000000 1024.000000"
 preserveAspectRatio="xMidYMid meet">

<g transform="translate(0.000000,1024.000000) scale(0.100000,-0.100000)"
fill="#000000" stroke="none">
<path d="M3981 6289 c-343 -141 -756 -321 -773 -337 -17 -14 -18 -71 -18 -924
l0 -909 26 -26 c21 -21 32 -25 62 -20 20 2 186 71 367 152 182 80 341 149 355
151 17 3 88 -23 220 -81 508 -224 551 -239 626 -215 36 11 282 118 453 196 40
19 107 48 149 66 126 52 112 -66 112 971 0 705 -3 907 -13 927 -26 52 -59 43
-417 -109 -181 -78 -335 -141 -342 -141 -7 0 -170 67 -363 149 -192 83 -366
152 -385 155 -19 3 -46 1 -59 -5z m-41 -679 l0 -489 -42 -11 c-146 -37 -265
-107 -368 -216 -81 -84 -96 -107 -150 -211 -23 -46 -43 -83 -44 -83 0 0 0 278
2 617 2 471 6 621 15 629 7 6 50 28 97 47 47 20 171 74 275 121 105 46 196 85
203 85 9 1 12 -103 12 -489z m204 475 c20 -9 65 -28 99 -44 78 -35 267 -118
372 -163 l80 -34 3 -68 c7 -155 -54 -294 -187 -427 -73 -73 -101 -93 -181
-132 -83 -39 -194 -77 -229 -77 -8 0 -11 136 -11 480 0 269 4 480 9 480 5 0
25 -7 45 -15z m1244 -656 c-7 -5 -31 -11 -53 -15 -174 -28 -391 -202 -487
-391 -93 -182 -113 -278 -113 -555 0 -120 0 -218 -1 -218 0 0 -144 62 -320
138 l-319 138 -3 230 -2 231 68 12 c220 39 422 159 547 324 96 128 139 248
151 426 l7 94 36 14 c20 8 140 61 266 117 l230 103 3 -321 c2 -246 -1 -321
-10 -327z m12 -549 c0 -363 -1 -391 -17 -397 -10 -4 -124 -53 -253 -109 l-235
-102 -7 57 c-10 90 -1 299 17 386 47 223 175 411 340 497 37 19 130 56 148 57
4 1 7 -175 7 -389z m-1462 -142 l-3 -221 -145 -64 c-80 -35 -206 -91 -280
-123 -74 -33 -138 -60 -142 -60 -10 0 2 37 52 162 108 267 254 434 441 503 35
13 67 24 72 24 4 1 6 -99 5 -221z"/>
<path d="M8963 5785 c-66 -28 -91 -115 -51 -175 29 -42 61 -60 111 -60 77 0
129 50 129 125 0 54 -14 81 -55 105 -37 23 -89 25 -134 5z"/>
<path d="M5950 5670 l0 -90 145 0 145 0 0 -470 0 -470 110 0 110 0 0 470 0
470 145 0 145 0 0 90 0 90 -400 0 -400 0 0 -90z"/>
<path d="M6933 5436 c-108 -35 -207 -127 -244 -225 -26 -71 -35 -193 -20 -273
25 -128 98 -223 211 -277 49 -23 67 -26 170 -26 106 0 120 2 172 28 78 38 143
104 179 182 25 52 32 82 36 157 12 199 -64 338 -226 414 -68 33 -209 43 -278
20z m190 -180 c43 -17 93 -76 106 -123 17 -61 13 -163 -8 -208 -49 -105 -169
-147 -265 -92 -108 61 -132 272 -43 374 17 20 45 42 62 49 39 17 107 17 148 0z"/>
<path d="M8702 5437 c-30 -9 -81 -57 -109 -103 -10 -16 -12 -9 -12 44 l-1 62
-100 0 -100 0 0 -400 0 -400 100 0 100 0 0 218 c1 234 7 290 37 331 33 44 99
72 166 69 l57 -3 0 98 0 97 -52 -1 c-29 -1 -68 -6 -86 -12z"/>
<path d="M10207 5440 c-46 -12 -111 -45 -154 -77 -126 -96 -173 -350 -96 -515
38 -81 102 -146 181 -185 51 -24 68 -27 167 -28 99 0 116 3 165 26 162 78 243
247 218 457 -15 128 -95 239 -211 295 -47 23 -76 29 -145 32 -48 3 -104 0
-125 -5z m208 -204 c55 -42 79 -104 79 -201 0 -146 -68 -225 -192 -225 -112 1
-182 89 -182 230 0 98 31 167 93 205 59 36 148 32 202 -9z"/>
<path d="M7550 5152 c0 -318 5 -355 60 -430 40 -56 98 -84 185 -90 95 -6 146
10 200 62 l45 43 0 -49 0 -48 100 0 100 0 0 400 0 400 -100 0 -100 0 0 -252
c0 -296 -6 -320 -81 -359 -51 -26 -127 -23 -160 7 -46 41 -50 70 -50 345 l1
259 -100 0 -100 0 0 -288z"/>
<path d="M8930 5040 l0 -400 100 0 100 0 0 400 0 400 -100 0 -100 0 0 -400z"/>
<path d="M9250 5355 l0 -85 175 0 175 0 -82 -112 c-45 -62 -126 -172 -180
-244 l-98 -132 0 -71 0 -71 315 0 315 0 0 85 0 85 -189 2 -189 3 49 65 c27 36
104 140 170 233 67 92 125 170 130 173 5 3 9 39 9 80 l0 74 -300 0 -300 0 0
-85z"/>
<path d="M10790 5172 c0 -352 13 -419 95 -490 45 -40 70 -47 175 -47 75 0 91
3 132 27 25 15 55 40 67 55 l20 28 1 -52 0 -53 100 0 100 0 0 400 0 400 -100
0 -100 0 0 -247 c0 -220 -3 -253 -19 -288 -29 -63 -62 -88 -123 -92 -67 -5
-97 11 -123 62 -18 36 -20 63 -23 300 l-2 260 -100 3 -100 3 0 -269z"/>
</g>
</svg>
